<?xml version="1.0" encoding="utf-8"?>
<!-- Generator: Adobe Illustrator 22.0.0, SVG Export Plug-In . SVG Version: 6.00 Build 0)  -->
<svg version="1.1" id="Capa_1" xmlns="http://www.w3.org/2000/svg" xmlns:xlink="http://www.w3.org/1999/xlink" x="0px" y="0px"
	 viewBox="0 0 67.3 90.9" style="enable-background:new 0 0 67.3 90.9;" xml:space="preserve">
<style type="text/css">
	.st0{fill:#181C2C;}
	.st1{fill:#4A4F97;}
</style>
<path class="st0" d="M66.7,25.7c0-0.1,0-0.4-0.1-0.5c-0.1-0.2-0.4-0.4-0.6-0.4h-0.4h-6.1h-0.4c-0.2,0-0.5,0.1-0.6,0.4l-24.4,51
	c-0.1,0.2-0.5,0.2-0.6,0l-24.3-51c-0.1-0.2-0.4-0.4-0.6-0.4H8.2H2.1H1.7c-0.2,0-0.5,0.1-0.6,0.4C1,25.3,1,25.6,1,25.7v0.1v63.8
	c0,0.6,0.5,1.1,1.1,1.1h6.5H22c0.2,0,0.4-0.2,0.2-0.5l-3.7-7.7c0-0.1-0.1-0.1-0.2-0.1H9.6c-0.1,0-0.4-0.1-0.4-0.4V43.4l22.3,47.1
	c0.1,0.2,0.4,0.4,0.6,0.4h3.3c0.2,0,0.5-0.1,0.6-0.4l22.1-46.9v38.7c0,0.1-0.1,0.4-0.4,0.4h-8.6c-0.1,0-0.2,0.1-0.2,0.2L46,90.5
	c-0.1,0.2,0.1,0.4,0.2,0.4h12.6h4.4h2.1c0.6,0,1.1-0.5,1.1-1.1v-64C66.7,25.8,66.7,25.7,66.7,25.7"/>
<path class="st1" d="M59.5,5.5c-0.7-1.3-1.8-2.6-3.2-3.6c-3.2-2.3-7.8-2.8-12.7,0c-2.3,1.3-4.5,3.7-6.7,7c-1,1.6-2.1,3.4-3.1,5.6
	c-1-2.1-2-4-3.1-5.6c-2.1-3.3-4.4-5.6-6.7-7l0,0c-4.9-2.8-9.4-2.2-12.7,0C9.8,2.9,8.7,4.1,8,5.5s-1.2,2.9-1.2,4.7
	c-0.1,3.9,2,8.2,7.5,11c2.2,1.2,5,2,8.5,2.5c5.6,0.7,16.5,0.7,22.1,0c3.3-0.5,6.1-1.2,8.5-2.5c5.4-2.8,7.6-7.1,7.5-11
	C60.8,8.4,60.3,6.8,59.5,5.5 M23.4,18.5c-2.7-0.4-5-1-6.7-2c-3.4-1.8-4.8-4.2-4.8-6.4c0-0.9,0.2-1.6,0.6-2.3c0.4-0.7,1-1.3,1.6-1.8
	c1.7-1.2,4.4-1.5,7.2,0.2c1.6,1,3.3,2.7,4.9,5.3c1.2,2,2.5,4.4,3.7,7.2C27.7,19,25.5,18.8,23.4,18.5 M51,16.6
	c-1.7,0.9-3.9,1.6-6.7,2c-2,0.2-4.2,0.4-6.7,0.4c1.2-2.9,2.5-5.4,3.7-7.2c1.7-2.6,3.3-4.3,4.9-5.3l0,0c2.8-1.7,5.5-1.5,7.2-0.2
	c0.7,0.5,1.2,1.1,1.6,1.8c0.4,0.7,0.6,1.5,0.6,2.3C55.8,12.4,54.4,14.8,51,16.6"/>
</svg>
