<?xml version="1.0" encoding="utf-8"?>
<!-- Generator: Adobe Illustrator 22.0.0, SVG Export Plug-In . SVG Version: 6.00 Build 0)  -->
<svg version="1.1" id="Capa_1" xmlns="http://www.w3.org/2000/svg" xmlns:xlink="http://www.w3.org/1999/xlink" x="0px" y="0px"
	 viewBox="0 0 67.3 90.9" style="enable-background:new 0 0 67.3 90.9;" xml:space="preserve">
<style type="text/css">
	.st0{fill:#FFFFFF;}
</style>
<path class="st0" d="M58.9,30.4c0-0.1,0-0.3-0.1-0.4c-0.1-0.2-0.3-0.3-0.5-0.3h-0.3H53h-0.3c-0.2,0-0.4,0.1-0.5,0.3L32.3,71.6
	c-0.1,0.2-0.4,0.2-0.5,0L12,30c-0.1-0.2-0.3-0.3-0.5-0.3h-0.3H6.2H5.9c-0.2,0-0.4,0.1-0.5,0.3c-0.1,0.1-0.1,0.3-0.1,0.4
	c0,0,0,0.1,0,0.1v52.1c0,0.5,0.4,0.9,0.9,0.9h5.3h10.9c0.2,0,0.3-0.2,0.2-0.4l-3-6.3c0-0.1-0.1-0.1-0.2-0.1h-7.1
	c-0.1,0-0.3-0.1-0.3-0.3V44.8l18.2,38.4c0.1,0.2,0.3,0.3,0.5,0.3h2.7c0.2,0,0.4-0.1,0.5-0.3l18-38.3v31.6c0,0.1-0.1,0.3-0.3,0.3h-7
	c-0.1,0-0.2,0.1-0.2,0.2l-2.4,6.3c-0.1,0.2,0.1,0.3,0.2,0.3h10.3h3.6h1.7c0.5,0,0.9-0.4,0.9-0.9V30.5C58.9,30.5,58.9,30.4,58.9,30.4
	"/>
<path class="st0" d="M53,13.9c-0.6-1.1-1.5-2.1-2.6-2.9C47.8,9.1,44,8.7,40,11c-1.9,1.1-3.7,3-5.5,5.7c-0.8,1.3-1.7,2.8-2.5,4.6
	c-0.8-1.7-1.6-3.3-2.5-4.6c-1.7-2.7-3.6-4.6-5.5-5.7h0c-4-2.3-7.7-1.8-10.4,0c-1.1,0.8-2,1.8-2.6,2.9c-0.6,1.1-1,2.4-1,3.8
	c-0.1,3.2,1.6,6.7,6.1,9c1.8,1,4.1,1.6,6.9,2c4.6,0.6,13.5,0.6,18,0c2.7-0.4,5-1,6.9-2c4.4-2.3,6.2-5.8,6.1-9
	C54.1,16.3,53.7,15,53,13.9 M23.6,24.5c-2.2-0.3-4.1-0.8-5.5-1.6c-2.8-1.5-3.9-3.4-3.9-5.2c0-0.7,0.2-1.3,0.5-1.9
	c0.3-0.6,0.8-1.1,1.3-1.5c1.4-1,3.6-1.2,5.9,0.2c1.3,0.8,2.7,2.2,4,4.3c1,1.6,2,3.6,3,5.9C27.1,24.9,25.3,24.8,23.6,24.5 M46.1,23
	c-1.4,0.7-3.2,1.3-5.5,1.6c-1.6,0.2-3.4,0.3-5.5,0.3c1-2.4,2-4.4,3-5.9c1.4-2.1,2.7-3.5,4-4.3l0,0c2.3-1.4,4.5-1.2,5.9-0.2
	c0.6,0.4,1,0.9,1.3,1.5c0.3,0.6,0.5,1.2,0.5,1.9C50,19.5,48.9,21.5,46.1,23"/>
</svg>
