<svg width="150" height="59" viewBox="0 0 150 59" fill="none" xmlns="http://www.w3.org/2000/svg">
<g clip-path="url(#clip0_98_40)">
<path d="M37.4704 3.53448C36.9708 2.62576 36.2713 1.83483 35.422 1.24584C33.3403 -0.218226 30.3759 -0.571621 27.2617 1.24584C25.7795 2.10408 24.3306 3.58497 22.965 5.75582C22.2989 6.79917 21.666 7.99398 21.0332 9.3739C20.4003 7.99398 19.7675 6.79917 19.1014 5.75582C17.7358 3.6018 16.2869 2.12091 14.8047 1.24584C11.7071 -0.571621 8.72609 -0.201398 6.64438 1.24584C5.77839 1.85165 5.07893 2.64258 4.59597 3.53448C4.09636 4.44321 3.81325 5.46974 3.77994 6.54675C3.69667 9.08782 5.06228 11.8308 8.55956 13.6988C10.0084 14.4729 11.807 14.9946 13.9554 15.2975C17.5526 15.7855 24.5138 15.7855 28.111 15.2975C30.2593 15.0114 32.0579 14.4729 33.5068 13.6988C37.0041 11.8477 38.3531 9.10465 38.2864 6.54675C38.2531 5.46974 37.97 4.44321 37.4704 3.53448ZM14.3884 11.9991C12.6397 11.7635 11.2075 11.3428 10.0917 10.7538C7.89341 9.57584 7.02741 8.02764 7.06072 6.63089C7.06072 6.10921 7.22726 5.58753 7.47706 5.13317C7.72687 4.67881 8.09325 4.2581 8.52625 3.95519C9.64205 3.16426 11.3241 3.01281 13.1726 4.08982C14.2218 4.69564 15.2877 5.8063 16.3535 7.50596C17.1529 8.76808 17.9356 10.3331 18.7017 12.2179C17.1029 12.2347 15.6707 12.1506 14.405 11.9823M32.008 10.737C30.8922 11.326 29.46 11.7467 27.7113 11.9823C26.4456 12.1506 25.0134 12.2347 23.4147 12.2179C24.1807 10.3331 24.9635 8.76808 25.7628 7.50596C26.8287 5.82313 27.8945 4.69564 28.9437 4.08982C30.7756 3.01281 32.4576 3.16426 33.5901 3.95519C34.0231 4.2581 34.3895 4.66198 34.6393 5.13317C34.8891 5.58753 35.039 6.09238 35.0556 6.63089C35.0889 8.01081 34.2396 9.57584 32.0246 10.7538" fill="#191D2D"/>
<path d="M42.0674 16.6425C42.0841 16.5247 42.0674 16.4069 42.0008 16.2891C41.9175 16.1545 41.7677 16.0703 41.6011 16.0703H37.2045C37.0214 16.0703 36.8548 16.1713 36.7882 16.3396L21.217 49.3062C21.1504 49.4576 20.9339 49.4576 20.8506 49.3062L5.27937 16.3396C5.19611 16.1713 5.02957 16.0703 4.86303 16.0703H0.466451C0.299914 16.0703 0.150031 16.1545 0.0667621 16.2891C0.00014728 16.3901 -0.0165064 16.5247 0.000147283 16.6425C0.000147283 16.6761 0.000147283 16.7098 0.000147283 16.7434V58.0569C0.000147283 58.4271 0.299914 58.73 0.666296 58.73H13.4064C13.5563 58.73 13.6562 58.5786 13.5896 58.444L11.2747 53.4628C11.2747 53.4628 11.1748 53.345 11.0915 53.345H5.52918C5.4126 53.345 5.32934 53.2608 5.32934 53.143V28.0184L19.5849 58.4608C19.6682 58.6291 19.8347 58.73 20.0013 58.73H22.1496C22.3328 58.73 22.4993 58.6291 22.5659 58.4608L36.7382 28.0689V53.143C36.7382 53.2608 36.655 53.345 36.5384 53.345H31.0427C30.9594 53.345 30.8761 53.3955 30.8595 53.4796L28.9776 58.4608C28.9276 58.5954 29.0276 58.73 29.1608 58.73H41.4013C41.7677 58.73 42.0674 58.4271 42.0674 58.0569V16.7434C42.0674 16.7434 42.0674 16.6761 42.0674 16.6425Z" fill="#4E4FEB"/>
<path d="M64.5494 25.6298C64.5494 27.6828 62.9173 29.1132 59.52 29.1132C56.1226 29.1132 54.3906 27.5819 54.3906 25.2091H56.2059C56.2059 26.6395 57.305 27.565 59.5033 27.5482C61.6683 27.5482 62.7008 26.8582 62.7008 25.7139C62.7008 24.5023 61.7183 24.0647 60.336 23.846L58.4208 23.5599C56.0893 23.2065 54.807 22.1463 54.807 20.2111C54.807 18.2758 56.2725 16.7949 59.47 16.7949C62.6675 16.7949 64.2829 18.3768 64.2829 20.7159H62.501C62.501 19.1845 61.3852 18.3095 59.4367 18.3431C57.5548 18.3768 56.6722 19.0667 56.6722 20.1269C56.6722 21.2544 57.5215 21.6583 58.9371 21.8771L60.9022 22.2136C63.367 22.6007 64.566 23.6104 64.566 25.6466L64.5494 25.6298Z" fill="#191D2D"/>
<path d="M69.9785 29.1137C67.6137 29.1137 65.6152 27.5319 65.6152 24.6037C65.6152 21.6756 67.6969 20.0938 70.0784 20.0938C72.4599 20.0938 74.425 21.7093 74.425 24.5701C74.425 27.4309 72.3433 29.1137 69.9785 29.1137ZM70.0285 21.6588C68.6795 21.6588 67.4471 22.618 67.4471 24.5701C67.4471 26.5222 68.6629 27.515 70.0285 27.515C71.3941 27.515 72.5931 26.5558 72.5931 24.6037C72.5931 22.6517 71.3941 21.6588 70.0285 21.6588Z" fill="#191D2D"/>
<path d="M76.0742 15.9199H77.8229V28.945H76.0742V15.9199Z" fill="#191D2D"/>
<path d="M79.9209 25.5619V20.2441H81.6695V25.3263C81.6695 26.723 82.3856 27.514 83.7179 27.514C85.0502 27.514 85.783 26.7399 85.783 25.3263V20.2441H87.5316V25.5619C87.5316 27.8 86.166 29.0958 83.7346 29.0958C81.3032 29.0958 79.9209 27.8 79.9209 25.5619Z" fill="#191D2D"/>
<path d="M89.0303 24.603C89.0303 21.7422 90.9621 20.0762 93.3103 20.0762C95.4753 20.0762 97.1406 21.3215 97.2739 23.4923H95.4919C95.3587 22.1629 94.4261 21.5571 93.2936 21.5571C91.978 21.5571 90.8788 22.4658 90.8788 24.5693C90.8788 26.6729 91.9613 27.5984 93.2603 27.5984C94.4427 27.5984 95.3753 26.9926 95.5086 25.68H97.2739C97.1406 27.8172 95.5252 29.0961 93.2936 29.0961C90.8622 29.0961 89.0303 27.4806 89.0303 24.603Z" fill="#191D2D"/>
<path d="M100.738 18.4267H98.7061V16.4746H100.738V18.4267ZM98.8559 20.2441H100.605V28.9275H98.8559V20.2441Z" fill="#191D2D"/>
<path d="M106.583 29.1137C104.218 29.1137 102.22 27.5319 102.22 24.6037C102.22 21.6756 104.301 20.0938 106.683 20.0938C109.064 20.0938 111.03 21.7093 111.03 24.5701C111.03 27.4309 108.948 29.1137 106.583 29.1137ZM106.633 21.6588C105.267 21.6588 104.052 22.618 104.052 24.5701C104.052 26.5222 105.267 27.515 106.633 27.515C107.999 27.515 109.198 26.5558 109.198 24.6037C109.198 22.6517 107.999 21.6588 106.633 21.6588Z" fill="#191D2D"/>
<path d="M120.473 23.5436V28.9454H118.707V23.7455C118.707 22.3824 118.058 21.6756 116.776 21.6756C115.61 21.6756 114.694 22.4665 114.411 23.7118V28.9623H112.662V20.2789H114.361V21.5746C114.96 20.6323 115.993 20.0938 117.292 20.0938C119.457 20.0938 120.473 21.5073 120.473 23.5436Z" fill="#191D2D"/>
<path d="M130.298 25.1247H123.854C123.92 26.757 125.003 27.6489 126.218 27.6489C127.367 27.6489 128.233 27.1441 128.383 26.1175H130.165C129.982 27.9182 128.483 29.0961 126.202 29.0961C123.92 29.0961 121.988 27.5143 121.988 24.5862C121.988 21.658 123.97 20.0762 126.268 20.0762C128.566 20.0762 130.282 21.6749 130.282 24.6535V25.1247H130.298ZM123.903 23.7952H128.4C128.267 22.2638 127.434 21.5739 126.235 21.5739C125.036 21.5739 124.053 22.2975 123.903 23.7952Z" fill="#191D2D"/>
<path d="M138.875 26.4541C138.875 27.9182 137.693 29.113 135.095 29.113C132.497 29.113 131.281 27.8172 131.281 25.9997H133.047C133.047 26.9758 133.696 27.6994 135.112 27.6994C136.427 27.6826 137.093 27.2619 137.093 26.5551C137.093 25.8483 136.594 25.5117 135.661 25.4107L134.179 25.2256C132.38 25.0237 131.531 24.0981 131.531 22.7182C131.531 21.3383 132.63 20.0762 135.045 20.0762C137.46 20.0762 138.675 21.4056 138.675 23.1894H136.944C136.944 22.1124 136.277 21.4729 134.978 21.4897C133.763 21.5234 133.263 21.9946 133.263 22.6509C133.263 23.2567 133.696 23.5765 134.712 23.7111L136.144 23.8962C138.043 24.1486 138.875 25.0405 138.875 26.4541Z" fill="#191D2D"/>
<path d="M63.25 43.7201V43.8716H61.5513C61.4181 43.4845 61.3515 43.0301 61.3348 42.5926C60.702 43.535 59.6195 44.0735 58.3371 44.0735C56.2388 44.0735 54.5234 42.5253 54.5234 39.5467C54.5234 36.5681 56.3054 35.0367 58.4037 35.0367C59.6028 35.0367 60.6353 35.4911 61.2682 36.3156V30.8633H63.0335V42.0373C63.0335 42.5589 63.1168 43.2152 63.25 43.7201ZM61.2515 40.5227V38.5538C60.9351 37.359 59.9192 36.5849 58.7535 36.5849C57.5044 36.5849 56.322 37.4431 56.322 39.5299C56.322 41.6166 57.4878 42.458 58.7535 42.458C59.9026 42.458 60.9351 41.7007 61.2515 40.4891V40.5227Z" fill="#191D2D"/>
<path d="M72.9596 40.068H66.5146C66.5812 41.7004 67.6637 42.5923 68.8795 42.5923C70.0286 42.5923 70.8946 42.0874 71.0444 41.0609H72.8264C72.6432 42.8615 71.1444 44.0395 68.8628 44.0395C66.5812 44.0395 64.6494 42.4576 64.6494 39.5295C64.6494 36.6014 66.6312 35.0195 68.9294 35.0195C71.2276 35.0195 72.943 36.6182 72.943 39.5968V40.068H72.9596ZM66.5646 38.7386H71.0611C70.9279 37.2072 70.0952 36.5173 68.8961 36.5173C67.697 36.5173 66.7145 37.2409 66.5646 38.7386Z" fill="#191D2D"/>
<path d="M80.1206 33.3701H78.0889V31.418H80.1206V33.3701ZM78.2388 35.1875H79.9874V43.8709H78.2388V35.1875Z" fill="#191D2D"/>
<path d="M90.3789 43.7201V43.8716H88.6802C88.547 43.4845 88.4804 43.0301 88.4637 42.5926C87.8309 43.535 86.7484 44.0735 85.466 44.0735C83.3677 44.0735 81.6523 42.5253 81.6523 39.5467C81.6523 36.5681 83.4343 35.0367 85.5327 35.0367C86.7317 35.0367 87.7643 35.4911 88.3971 36.3156V30.8633H90.1624V42.0373C90.1624 42.5589 90.2457 43.2152 90.3789 43.7201ZM88.3804 40.5227V38.5538C88.064 37.359 87.0481 36.5849 85.8824 36.5849C84.6334 36.5849 83.4509 37.4431 83.4509 39.5299C83.4509 41.6166 84.6167 42.458 85.8824 42.458C87.0315 42.458 88.064 41.7007 88.3804 40.4891V40.5227Z" fill="#191D2D"/>
<path d="M100.089 40.068H93.6435C93.7101 41.7004 94.7926 42.5923 96.0084 42.5923C97.1575 42.5923 98.0235 42.0874 98.1733 41.0609H99.9553C99.7721 42.8615 98.2733 44.0395 95.9917 44.0395C93.7101 44.0395 91.7783 42.4576 91.7783 39.5295C91.7783 36.6014 93.7601 35.0195 96.0583 35.0195C98.3565 35.0195 100.072 36.6182 100.072 39.5968V40.068H100.089ZM93.6935 38.7386H98.19C98.0568 37.2072 97.2241 36.5173 96.025 36.5173C94.8259 36.5173 93.8434 37.2409 93.6935 38.7386Z" fill="#191D2D"/>
<path d="M109.548 38.4693V43.8712H107.783V38.6713C107.783 37.3082 107.133 36.6014 105.851 36.6014C104.685 36.6014 103.769 37.3923 103.486 38.6376V43.888H101.737V35.2046H103.436V36.5004C104.036 35.558 105.068 35.0195 106.367 35.0195C108.532 35.0195 109.548 36.4331 109.548 38.4693Z" fill="#191D2D"/>
<path d="M116.176 42.2062V43.7375C115.743 43.8217 115.277 43.8722 114.611 43.8722C113.128 43.8722 112.046 43.0644 112.046 41.1291V36.7201H110.764V35.1888H112.046V33.304L113.795 32.6309V35.2056H116.11V36.737H113.795V41.0114C113.795 41.9369 114.244 42.3071 114.944 42.3071C115.427 42.3071 115.826 42.2903 116.159 42.223L116.176 42.2062Z" fill="#191D2D"/>
<path d="M119.39 33.3701H117.358V31.418H119.39V33.3701ZM117.508 35.1875H119.257V43.8709H117.508V35.1875Z" fill="#191D2D"/>
<path d="M129.648 43.7201V43.8716H127.95C127.817 43.4845 127.75 43.0301 127.733 42.5926C127.1 43.535 126.018 44.0735 124.736 44.0735C122.637 44.0735 120.922 42.5253 120.922 39.5467C120.922 36.5681 122.704 35.0367 124.802 35.0367C126.001 35.0367 127.034 35.4911 127.667 36.3156V30.8633H129.432V42.0373C129.432 42.5589 129.515 43.2152 129.648 43.7201ZM127.65 40.5227V38.5538C127.334 37.359 126.318 36.5849 125.152 36.5849C123.903 36.5849 122.72 37.4431 122.72 39.5299C122.72 41.6166 123.886 42.458 125.152 42.458C126.301 42.458 127.334 41.7007 127.65 40.4891V40.5227Z" fill="#191D2D"/>
<path d="M139.824 43.7198V43.8712H138.126C137.992 43.4673 137.926 43.013 137.909 42.5586C137.26 43.5178 136.144 44.0563 134.828 44.0563C132.746 44.0563 131.081 42.525 131.081 39.5463C131.081 36.5677 132.913 35.0195 135.011 35.0195C136.26 35.0195 137.276 35.5244 137.876 36.4163V35.2046H139.591V42.0369C139.591 42.5586 139.674 43.2149 139.808 43.7198H139.824ZM137.826 40.5056V38.5366C137.509 37.3418 136.56 36.5677 135.411 36.5677C134.162 36.5677 132.913 37.4091 132.913 39.4959C132.913 41.5826 134.062 42.4408 135.311 42.4408C136.46 42.4408 137.509 41.6835 137.826 40.4719V40.5056Z" fill="#191D2D"/>
<path d="M150 43.7201V43.8716H148.301C148.168 43.4845 148.101 43.0301 148.085 42.5926C147.452 43.535 146.369 44.0735 145.087 44.0735C142.989 44.0735 141.273 42.5253 141.273 39.5467C141.273 36.5681 143.055 35.0367 145.154 35.0367C146.353 35.0367 147.385 35.4911 148.018 36.3156V30.8633H149.783V42.0373C149.783 42.5589 149.867 43.2152 150 43.7201ZM148.002 40.5227V38.5538C147.685 37.359 146.669 36.5849 145.503 36.5849C144.254 36.5849 143.072 37.4431 143.072 39.5299C143.072 41.6166 144.238 42.458 145.503 42.458C146.653 42.458 147.685 41.7007 148.002 40.4891V40.5227Z" fill="#191D2D"/>
<path d="M63.25 58.6478V58.7993H61.5513C61.4181 58.4122 61.3515 57.9579 61.3348 57.5203C60.702 58.4627 59.6195 59.0012 58.3371 59.0012C56.2388 59.0012 54.5234 57.453 54.5234 54.4744C54.5234 51.4958 56.3054 49.9644 58.4037 49.9644C59.6028 49.9644 60.6353 50.4188 61.2682 51.2434V45.791H63.0335V56.965C63.0335 57.4867 63.1168 58.143 63.25 58.6478ZM61.2515 55.4505V53.4815C60.9351 52.2867 59.9192 51.5126 58.7535 51.5126C57.5044 51.5126 56.322 52.3709 56.322 54.4576C56.322 56.5443 57.4878 57.3857 58.7535 57.3857C59.9026 57.3857 60.9351 56.6284 61.2515 55.4168V55.4505Z" fill="#191D2D"/>
<path d="M72.9596 55.0114H66.5146C66.5812 56.6437 67.6637 57.5356 68.8795 57.5356C70.0286 57.5356 70.8946 57.0308 71.0444 56.0042H72.8264C72.6432 57.8049 71.1444 58.9829 68.8628 58.9829C66.5812 58.9829 64.6494 57.401 64.6494 54.4729C64.6494 51.5447 66.6312 49.9629 68.9294 49.9629C71.2276 49.9629 72.943 51.5616 72.943 54.5402V55.0114H72.9596ZM66.5646 53.6819H71.0611C70.9279 52.1506 70.0952 51.4606 68.8961 51.4606C67.697 51.4606 66.7145 52.1842 66.5646 53.6819Z" fill="#191D2D"/>
<path d="M90.8951 53.2946V58.7974H89.1298V53.4629C89.1298 52.1503 88.5469 51.5108 87.4644 51.5108C86.4985 51.5108 85.7991 52.2681 85.466 53.3787V58.7806H83.7007V53.4461C83.7007 52.1334 83.1012 51.494 82.0187 51.494C81.0195 51.494 80.3033 52.2681 79.9869 53.4292V58.7806H78.2383V50.0972H79.937V51.3257C80.4865 50.4338 81.4191 49.9121 82.5516 49.9121C83.8672 49.9121 84.6999 50.5348 85.1329 51.5613C85.6825 50.5179 86.7483 49.9121 88.014 49.9121C89.9625 49.9121 90.8951 51.2415 90.8951 53.2609V53.2946Z" fill="#191D2D"/>
<path d="M101.171 58.6475V58.7989H99.4723C99.339 58.3951 99.2724 57.9407 99.2558 57.4863C98.6063 58.4456 97.4905 58.9841 96.1748 58.9841C94.0931 58.9841 92.4277 57.4527 92.4277 54.4741C92.4277 51.4955 94.2596 49.9473 96.358 49.9473C97.607 49.9473 98.6229 50.4521 99.2225 51.344V50.1324H100.938V56.9647C100.938 57.4863 101.021 58.1426 101.154 58.6475H101.171ZM99.1725 55.4333V53.4644C98.8561 52.2696 97.9068 51.4955 96.7577 51.4955C95.5087 51.4955 94.2596 52.3369 94.2596 54.4236C94.2596 56.5103 95.4088 57.3685 96.6578 57.3685C97.8069 57.3685 98.8561 56.6113 99.1725 55.3996V55.4333Z" fill="#191D2D"/>
<path d="M107.849 49.9633V51.7303C107.599 51.6967 107.266 51.6798 106.983 51.6798C106.033 51.6798 105.201 52.4203 104.901 53.8675V58.7982H103.152V50.1148H104.851V51.4442C105.384 50.4682 106.25 49.9297 107.282 49.9297C107.449 49.9297 107.699 49.9297 107.849 49.9465V49.9633Z" fill="#191D2D"/>
<path d="M108.481 54.4897C108.481 51.6289 110.397 49.9629 112.761 49.9629C114.926 49.9629 116.592 51.2082 116.725 53.379H114.943C114.81 52.0496 113.877 51.4606 112.745 51.4606C111.429 51.4606 110.33 52.3693 110.33 54.456C110.33 56.5428 111.413 57.4851 112.711 57.4851C113.894 57.4851 114.827 56.8793 114.96 55.5667H116.725C116.592 57.7039 114.976 58.9829 112.745 58.9829C110.313 58.9829 108.481 57.3673 108.481 54.4897Z" fill="#191D2D"/>
<path d="M126.468 58.6475V58.7989H124.769C124.636 58.3951 124.569 57.9407 124.553 57.4863C123.903 58.4456 122.787 58.9841 121.472 58.9841C119.39 58.9841 117.725 57.4527 117.725 54.4741C117.725 51.4955 119.557 49.9473 121.655 49.9473C122.904 49.9473 123.92 50.4521 124.519 51.344V50.1324H126.235V56.9647C126.235 57.4863 126.318 58.1426 126.451 58.6475H126.468ZM124.469 55.4333V53.4644C124.153 52.2696 123.204 51.4955 122.055 51.4955C120.806 51.4955 119.557 52.3369 119.557 54.4236C119.557 56.5103 120.706 57.3685 121.955 57.3685C123.104 57.3685 124.153 56.6113 124.469 55.3996V55.4333Z" fill="#191D2D"/>
</g>
<defs>
<clipPath id="clip0_98_40">
<rect width="150" height="59" fill="white"/>
</clipPath>
</defs>
</svg>
