<svg width="148" height="26" viewBox="0 0 148 26" fill="none" xmlns="http://www.w3.org/2000/svg">
<g clip-path="url(#clip0_2359_650)">
<path d="M17.5265 21.9215L16.1223 24.7622H24.7831L24.8134 1.46875H21.7544L12.3877 20.1868L3.02103 1.46875L0 1.49905L0.0303621 24.7319L8.69115 24.7622L7.24895 21.8912L2.81608 21.9215L2.84645 7.4152L11.5072 24.7622H13.2151L21.929 7.4455L21.9594 21.9215H17.5265Z" fill="#F136A5"/>
<path d="M9.32146 2.95429C10.1389 2.95429 10.8016 2.29295 10.8016 1.47714C10.8016 0.66134 10.1389 0 9.32146 0C8.50399 0 7.84131 0.66134 7.84131 1.47714C7.84131 2.29295 8.50399 2.95429 9.32146 2.95429Z" fill="#F136A5"/>
<path d="M15.4924 2.9621C16.3098 2.9621 16.9725 2.30076 16.9725 1.48496C16.9725 0.669152 16.3098 0.0078125 15.4924 0.0078125C14.6749 0.0078125 14.0122 0.669152 14.0122 1.48496C14.0122 2.30076 14.6749 2.9621 15.4924 2.9621Z" fill="#F136A5"/>
<path d="M43.562 8.37036H38.9394V21.7404H35.129V8.37036H30.5063V5.35547H43.5545V8.37036H43.562Z" fill="#3A3A3A"/>
<path d="M46.2639 11.878C46.6283 11.2493 47.0382 10.7569 47.5088 10.3933C47.9794 10.0297 48.5183 9.85547 49.1256 9.85547C49.6493 9.85547 50.082 9.97667 50.4084 10.2266L50.1806 12.787C50.1427 12.9537 50.082 13.0673 49.9985 13.1279C49.915 13.1885 49.7935 13.2188 49.6417 13.2188C49.581 13.2188 49.5051 13.2188 49.4064 13.2112C49.3077 13.2037 49.209 13.1961 49.1028 13.1809C48.9965 13.1658 48.8902 13.1582 48.784 13.1506C48.6777 13.1431 48.579 13.1355 48.4879 13.1355C47.9794 13.1355 47.5695 13.2718 47.2659 13.537C46.9623 13.8097 46.7042 14.1808 46.4916 14.6581V21.7408H43V10.0751H45.0722C45.2468 10.0751 45.391 10.0903 45.5049 10.1206C45.6187 10.1509 45.7174 10.1963 45.8009 10.2645C45.8768 10.3251 45.9375 10.416 45.9831 10.5145C46.021 10.6206 46.059 10.7493 46.0893 10.8933L46.2715 11.8704L46.2639 11.878Z" fill="#3A3A3A"/>
<path d="M51.2208 11.6962C51.9268 11.0751 52.7086 10.613 53.5739 10.31C54.4316 10.007 55.3577 9.85547 56.3368 9.85547C57.0428 9.85547 57.6804 9.9691 58.2497 10.1963C58.8189 10.4236 59.2971 10.7418 59.6919 11.1508C60.0866 11.5599 60.3902 12.0447 60.6027 12.6052C60.8152 13.1658 60.9215 13.7794 60.9215 14.446V21.7332H59.3199C58.9859 21.7332 58.743 21.6878 58.5685 21.5969C58.4015 21.506 58.2572 21.3166 58.1434 21.0363L57.8929 20.3924C57.5969 20.6424 57.316 20.8545 57.0504 21.0439C56.7771 21.2333 56.4962 21.3923 56.2078 21.5211C55.9194 21.6499 55.6082 21.7484 55.2818 21.8165C54.9554 21.8771 54.591 21.915 54.1963 21.915C53.665 21.915 53.1792 21.8468 52.7389 21.7105C52.2987 21.5741 51.9343 21.3696 51.6307 21.0969C51.3271 20.8242 51.0918 20.4909 50.9248 20.0894C50.7578 19.6879 50.6743 19.2259 50.6743 18.7032C50.6743 18.2865 50.7806 17.8548 50.9931 17.423C51.2057 16.9912 51.57 16.5973 52.0862 16.2413C52.6023 15.8852 53.3006 15.5898 54.1811 15.3474C55.0616 15.105 56.1699 14.9762 57.5058 14.9459V14.4536C57.5058 13.7718 57.3616 13.2794 57.0807 12.9764C56.7999 12.6734 56.3976 12.5219 55.8814 12.5219C55.4715 12.5219 55.13 12.5674 54.8643 12.6583C54.5986 12.7492 54.3633 12.8476 54.1584 12.9613C53.9534 13.0749 53.7485 13.1734 53.5587 13.2643C53.3614 13.3552 53.1336 13.4006 52.8604 13.4006C52.6175 13.4006 52.4201 13.34 52.2531 13.2188C52.0861 13.0976 51.9495 12.9537 51.8508 12.7946L51.2208 11.7038V11.6962ZM57.5058 16.9912C56.8075 17.0215 56.2306 17.0821 55.7827 17.173C55.3349 17.2639 54.9781 17.3775 54.7125 17.5139C54.4468 17.6502 54.2646 17.8017 54.166 17.976C54.0673 18.1502 54.0141 18.332 54.0141 18.5365C54.0141 18.938 54.1204 19.2107 54.3405 19.3774C54.5607 19.5364 54.8795 19.6198 55.2969 19.6198C55.7448 19.6198 56.1395 19.544 56.4811 19.3849C56.8226 19.2259 57.1642 18.9759 57.5058 18.6199V16.9988V16.9912Z" fill="#3A3A3A"/>
<path d="M73.7269 4.9082V21.7401H71.5636C71.131 21.7401 70.8425 21.5431 70.7059 21.1568L70.4326 20.2705C70.1973 20.5205 69.9544 20.7402 69.7039 20.9447C69.4459 21.1492 69.1726 21.3234 68.8766 21.4674C68.5805 21.6113 68.2617 21.7249 67.9202 21.8082C67.5786 21.884 67.2067 21.9294 66.8119 21.9294C66.2047 21.9294 65.643 21.7931 65.1193 21.528C64.6031 21.2553 64.1553 20.8689 63.7757 20.3614C63.3962 19.8539 63.1078 19.2251 62.8876 18.4903C62.6751 17.7556 62.5688 16.9072 62.5688 15.9678C62.5688 15.0967 62.6903 14.2937 62.9256 13.5438C63.1685 12.8015 63.5025 12.15 63.9427 11.6122C64.383 11.0668 64.9067 10.6425 65.5292 10.3395C66.144 10.029 66.8271 9.87747 67.571 9.87747C68.1782 9.87747 68.6868 9.96079 69.1043 10.135C69.5142 10.3092 69.8937 10.5365 70.2277 10.8319V4.93093H73.7193L73.7269 4.9082ZM70.2353 13.2105C69.9696 12.9151 69.6888 12.7106 69.3775 12.5969C69.0663 12.4833 68.7475 12.4227 68.406 12.4227C68.0644 12.4227 67.7835 12.4833 67.5179 12.6121C67.2446 12.7409 67.0093 12.9454 66.8119 13.2257C66.6146 13.5059 66.4552 13.8695 66.3413 14.324C66.2275 14.771 66.1743 15.3164 66.1743 15.9527C66.1743 16.589 66.2199 17.0814 66.311 17.5056C66.4021 17.9298 66.5235 18.2631 66.6905 18.5206C66.8499 18.7782 67.0473 18.9676 67.2674 19.0736C67.4951 19.1873 67.7456 19.2403 68.0188 19.2403C68.2769 19.2403 68.5046 19.2176 68.7096 19.1645C68.9145 19.1191 69.1043 19.0433 69.2789 18.96C69.4534 18.8767 69.6129 18.7555 69.7723 18.6191C69.9241 18.4828 70.0759 18.3237 70.2277 18.1419V13.2029L70.2353 13.2105Z" fill="#3A3A3A"/>
<path d="M78.9641 16.5364C79.078 17.5136 79.374 18.2181 79.8522 18.6574C80.3304 19.0968 80.9528 19.3165 81.7119 19.3165C82.1142 19.3165 82.4633 19.271 82.7594 19.1725C83.0554 19.0741 83.3135 18.968 83.5412 18.8468C83.7689 18.7256 83.9815 18.6196 84.1712 18.5211C84.361 18.4226 84.5659 18.3772 84.7709 18.3772C85.0517 18.3772 85.2567 18.4756 85.4009 18.6802L86.418 19.9301C86.0613 20.3391 85.6665 20.68 85.2491 20.9375C84.8316 21.1951 84.4065 21.3996 83.9663 21.5435C83.526 21.6875 83.0858 21.7935 82.6455 21.8466C82.2053 21.8996 81.7878 21.9299 81.3855 21.9299C80.5657 21.9299 79.7991 21.7935 79.078 21.5284C78.3569 21.2633 77.7345 20.8694 77.1955 20.3391C76.6566 19.8164 76.2315 19.165 75.9203 18.3847C75.6091 17.6045 75.4497 16.6955 75.4497 15.6653C75.4497 14.885 75.5863 14.1503 75.852 13.4533C76.1177 12.7564 76.5048 12.1429 76.9982 11.6202C77.4991 11.0975 78.0988 10.6809 78.8123 10.3703C79.5258 10.0597 80.3228 9.9082 81.2185 9.9082C81.9927 9.9082 82.6987 10.0294 83.3439 10.2718C83.989 10.5142 84.5356 10.8627 84.9986 11.3172C85.4616 11.7717 85.8184 12.3322 86.084 12.9988C86.3497 13.6655 86.4711 14.4154 86.4711 15.2562C86.4711 15.5213 86.4636 15.7335 86.4408 15.9001C86.418 16.0668 86.3801 16.1955 86.3193 16.294C86.2586 16.3925 86.1751 16.4607 86.0764 16.4985C85.9778 16.5364 85.8487 16.5516 85.6893 16.5516H78.9489L78.9641 16.5364ZM83.359 14.5139C83.359 14.2336 83.3211 13.9685 83.2528 13.7033C83.1844 13.4382 83.063 13.2034 82.9036 12.9988C82.7442 12.7943 82.5317 12.6277 82.266 12.4989C82.0003 12.3701 81.6815 12.3095 81.3096 12.3095C80.6492 12.3095 80.1331 12.4989 79.7535 12.8776C79.374 13.2564 79.1311 13.8018 79.0097 14.5139H83.359Z" fill="#3A3A3A"/>
<path d="M97.6294 5.37695V21.7392H97.045C96.8476 21.7392 96.7338 21.6407 96.7034 21.4437L96.5895 19.6787C96.0962 20.3529 95.5117 20.8907 94.8513 21.2847C94.1909 21.6786 93.4471 21.8831 92.6197 21.8831C91.2382 21.8831 90.1604 21.4059 89.3937 20.4514C88.6271 19.4969 88.2476 18.0728 88.2476 16.1639C88.2476 15.3458 88.3538 14.5807 88.5664 13.8762C88.7789 13.1642 89.0977 12.5506 89.5076 12.0355C89.9175 11.5128 90.426 11.1037 91.0333 10.8007C91.6405 10.4977 92.3313 10.3538 93.1207 10.3538C93.9101 10.3538 94.5401 10.4901 95.0942 10.7704C95.6483 11.0507 96.1341 11.4598 96.5516 12.0052V5.37695H97.6219H97.6294ZM96.5592 12.9596C96.1341 12.3157 95.6559 11.8612 95.1322 11.5961C94.6084 11.331 94.0164 11.2022 93.3484 11.2022C92.6804 11.2022 92.1111 11.3234 91.6102 11.5658C91.1168 11.8082 90.6993 12.1415 90.3653 12.5809C90.0313 13.0202 89.7808 13.5429 89.6138 14.1565C89.4469 14.7701 89.3634 15.4367 89.3634 16.1715C89.3634 17.838 89.667 19.0576 90.2818 19.8454C90.8967 20.6256 91.7772 21.0195 92.9385 21.0195C93.6748 21.0195 94.3503 20.8301 94.9576 20.4438C95.5648 20.0575 96.1037 19.5272 96.5668 18.8379V12.9596H96.5592Z" fill="#3A3A3A"/>
<path d="M101.705 15.7037V15.9158C101.705 16.7567 101.804 17.4914 102.001 18.1278C102.198 18.7641 102.472 19.3019 102.836 19.7337C103.193 20.1655 103.633 20.4912 104.142 20.7033C104.65 20.923 105.227 21.029 105.857 21.029C106.419 21.029 106.912 20.9684 107.322 20.8472C107.732 20.726 108.081 20.5821 108.362 20.4306C108.643 20.2791 108.87 20.1352 109.03 20.014C109.197 19.8927 109.318 19.8246 109.387 19.8246C109.485 19.8246 109.561 19.8624 109.614 19.9382L109.91 20.3018C109.728 20.5291 109.493 20.7336 109.197 20.9305C108.901 21.1275 108.567 21.2941 108.202 21.4305C107.838 21.5668 107.451 21.6805 107.034 21.7638C106.616 21.8471 106.199 21.885 105.774 21.885C105.007 21.885 104.309 21.7486 103.679 21.4835C103.048 21.2184 102.51 20.8321 102.054 20.317C101.606 19.8094 101.257 19.1807 101.014 18.4459C100.771 17.7111 100.65 16.8627 100.65 15.9083C100.65 15.1053 100.764 14.3629 100.991 13.6887C101.219 13.007 101.553 12.4237 101.986 11.9313C102.418 11.4389 102.95 11.0526 103.572 10.7799C104.202 10.4996 104.908 10.3633 105.705 10.3633C106.335 10.3633 106.92 10.4693 107.466 10.689C108.005 10.9087 108.476 11.2268 108.878 11.6359C109.273 12.0525 109.592 12.5601 109.819 13.1736C110.047 13.7796 110.161 14.4766 110.161 15.2644C110.161 15.431 110.138 15.5446 110.093 15.6052C110.047 15.6658 109.971 15.6961 109.865 15.6961H101.705V15.7037ZM109.189 15.0144C109.189 14.416 109.106 13.8781 108.939 13.4009C108.772 12.9237 108.529 12.5222 108.225 12.1889C107.914 11.8556 107.55 11.6056 107.125 11.4314C106.7 11.2571 106.229 11.1662 105.72 11.1662C105.143 11.1662 104.62 11.2571 104.164 11.4389C103.709 11.6207 103.307 11.8783 102.973 12.2116C102.639 12.5525 102.373 12.954 102.168 13.4236C101.963 13.8933 101.826 14.4235 101.766 15.0068H109.189V15.0144Z" fill="#3A3A3A"/>
<path d="M119.239 11.9311C119.179 12.0371 119.095 12.0902 118.981 12.0902C118.898 12.0902 118.792 12.0447 118.663 11.9462C118.534 11.8553 118.367 11.7493 118.146 11.6281C117.934 11.5145 117.668 11.4084 117.349 11.3099C117.031 11.219 116.651 11.166 116.203 11.166C115.801 11.166 115.429 11.2266 115.095 11.3402C114.761 11.4539 114.473 11.6129 114.237 11.8099C114.002 12.0068 113.82 12.2341 113.691 12.4916C113.562 12.7492 113.501 13.0219 113.501 13.3098C113.501 13.6658 113.592 13.9536 113.774 14.1885C113.956 14.4233 114.192 14.6202 114.48 14.7869C114.769 14.9536 115.103 15.0975 115.475 15.2111C115.846 15.3323 116.234 15.4535 116.621 15.5671C117.008 15.6883 117.387 15.8171 117.767 15.9686C118.139 16.1125 118.473 16.2943 118.761 16.514C119.05 16.7337 119.285 16.9988 119.467 17.3094C119.649 17.6276 119.74 18.0063 119.74 18.4532C119.74 18.9381 119.657 19.3926 119.482 19.8168C119.308 20.2334 119.057 20.597 118.723 20.9076C118.389 21.2182 117.979 21.4606 117.486 21.6424C117 21.8242 116.439 21.9151 115.809 21.9151C115.019 21.9151 114.344 21.7863 113.767 21.5363C113.197 21.2863 112.681 20.9606 112.233 20.5515L112.484 20.1728C112.522 20.1122 112.567 20.0667 112.613 20.0364C112.658 20.0061 112.727 19.991 112.81 19.991C112.909 19.991 113.023 20.0516 113.167 20.1728C113.304 20.294 113.493 20.4228 113.721 20.5591C113.956 20.6955 114.245 20.8242 114.586 20.9454C114.928 21.0667 115.353 21.1273 115.854 21.1273C116.325 21.1273 116.742 21.0591 117.107 20.9303C117.471 20.8015 117.767 20.6197 118.01 20.3925C118.253 20.1652 118.435 19.9001 118.556 19.5971C118.678 19.2941 118.746 18.9759 118.746 18.635C118.746 18.2563 118.655 17.9457 118.473 17.7033C118.291 17.4533 118.055 17.2488 117.759 17.0746C117.463 16.9004 117.137 16.7564 116.765 16.6352C116.393 16.514 116.013 16.3928 115.619 16.2792C115.232 16.158 114.845 16.0292 114.473 15.8853C114.101 15.7414 113.767 15.5596 113.478 15.3475C113.182 15.1278 112.947 14.8626 112.765 14.5521C112.583 14.2415 112.491 13.8552 112.491 13.3855C112.491 12.9916 112.575 12.6053 112.75 12.2417C112.924 11.8781 113.167 11.5523 113.486 11.2721C113.805 10.9918 114.192 10.7721 114.655 10.6054C115.11 10.4388 115.626 10.3555 116.196 10.3555C116.879 10.3555 117.486 10.4539 118.017 10.6509C118.549 10.8479 119.027 11.1433 119.467 11.5523L119.239 11.9235V11.9311Z" fill="#3A3A3A"/>
<path d="M124.31 6.69546C124.31 6.83181 124.28 6.95302 124.227 7.07422C124.173 7.18784 124.097 7.29389 124.006 7.3848C123.915 7.4757 123.809 7.54387 123.688 7.5969C123.566 7.64992 123.437 7.67265 123.308 7.67265C123.179 7.67265 123.042 7.64992 122.929 7.5969C122.807 7.54387 122.701 7.4757 122.61 7.3848C122.519 7.29389 122.45 7.19542 122.397 7.07422C122.344 6.96059 122.321 6.83181 122.321 6.69546C122.321 6.55911 122.344 6.43033 122.397 6.30913C122.45 6.18793 122.519 6.08188 122.61 5.99098C122.701 5.90008 122.807 5.8319 122.929 5.77888C123.05 5.72585 123.179 5.70312 123.308 5.70312C123.437 5.70312 123.574 5.72585 123.688 5.77888C123.809 5.8319 123.915 5.90008 124.006 5.99098C124.097 6.08188 124.173 6.18793 124.227 6.30913C124.28 6.43033 124.31 6.55911 124.31 6.69546ZM123.847 10.5512V21.7396H122.777V10.5512H123.847Z" fill="#3A3A3A"/>
<path d="M136.698 11.044V11.4152C136.698 11.5819 136.591 11.6803 136.379 11.7182L134.663 11.8394C134.876 12.1273 135.035 12.4454 135.149 12.7939C135.263 13.1499 135.316 13.5287 135.316 13.9377C135.316 14.4756 135.218 14.9679 135.028 15.4073C134.838 15.8466 134.565 16.2178 134.216 16.5284C133.866 16.839 133.449 17.0814 132.956 17.2556C132.462 17.4298 131.923 17.5132 131.324 17.5132C130.686 17.5132 130.102 17.4147 129.578 17.2177C129.259 17.3995 129.016 17.6116 128.826 17.854C128.644 18.0964 128.553 18.3389 128.553 18.5813C128.553 18.907 128.667 19.1494 128.895 19.3236C129.122 19.4978 129.426 19.619 129.798 19.7024C130.17 19.7781 130.595 19.8311 131.073 19.8539C131.551 19.8766 132.037 19.8993 132.531 19.9296C133.024 19.9523 133.51 20.0054 133.988 20.0735C134.466 20.1417 134.891 20.2554 135.263 20.4296C135.635 20.5962 135.939 20.8311 136.166 21.1416C136.394 21.4446 136.508 21.8461 136.508 22.3537C136.508 22.8157 136.394 23.2627 136.159 23.6944C135.923 24.1187 135.589 24.4974 135.149 24.8307C134.709 25.164 134.178 25.4216 133.555 25.6261C132.933 25.823 132.234 25.9215 131.46 25.9215C130.686 25.9215 129.98 25.8382 129.388 25.6791C128.796 25.52 128.295 25.3004 127.893 25.0277C127.49 24.755 127.187 24.4368 126.982 24.0808C126.777 23.7247 126.678 23.3384 126.678 22.9369C126.678 22.3461 126.876 21.8385 127.263 21.4143C127.65 20.9901 128.189 20.6568 128.864 20.422C128.485 20.2932 128.189 20.1114 127.953 19.869C127.726 19.6266 127.612 19.2933 127.612 18.8767C127.612 18.7176 127.642 18.551 127.703 18.3843C127.764 18.2101 127.855 18.0434 127.976 17.8692C128.098 17.7025 128.242 17.5435 128.416 17.392C128.591 17.2405 128.781 17.1041 129.001 16.9905C128.47 16.6799 128.052 16.2784 127.756 15.7633C127.46 15.2558 127.308 14.6574 127.308 13.9756C127.308 13.4378 127.407 12.9454 127.597 12.506C127.786 12.0667 128.06 11.6879 128.416 11.3773C128.766 11.0592 129.191 10.8168 129.684 10.6501C130.177 10.4759 130.724 10.3926 131.324 10.3926C131.817 10.3926 132.272 10.4532 132.69 10.5744C133.107 10.6956 133.479 10.8622 133.813 11.0819H136.69L136.698 11.044ZM135.529 22.49C135.529 22.134 135.438 21.8537 135.256 21.6416C135.073 21.4295 134.823 21.2628 134.519 21.1416C134.208 21.0204 133.859 20.9371 133.457 20.8917C133.054 20.8462 132.637 20.8083 132.197 20.7856C131.756 20.7629 131.316 20.7402 130.876 20.7174C130.436 20.6947 130.018 20.6493 129.623 20.5811C129.335 20.6947 129.077 20.8235 128.834 20.9674C128.591 21.1113 128.386 21.278 128.212 21.4674C128.037 21.6567 127.9 21.8613 127.809 22.0809C127.711 22.3006 127.665 22.543 127.665 22.793C127.665 23.1263 127.748 23.4293 127.915 23.7096C128.082 23.9899 128.333 24.2323 128.659 24.4368C128.986 24.6413 129.388 24.808 129.859 24.9292C130.329 25.0504 130.876 25.111 131.491 25.111C132.06 25.111 132.591 25.0504 133.085 24.9216C133.578 24.7928 134.003 24.611 134.367 24.3838C134.732 24.1489 135.02 23.8762 135.225 23.5505C135.43 23.2248 135.536 22.8763 135.536 22.49H135.529ZM131.339 16.786C131.817 16.786 132.25 16.7178 132.622 16.5814C132.994 16.4451 133.312 16.2481 133.57 16.0057C133.828 15.7557 134.018 15.4603 134.155 15.1194C134.292 14.7786 134.36 14.3922 134.36 13.9756C134.36 13.559 134.292 13.1726 134.155 12.8242C134.018 12.4757 133.813 12.1803 133.555 11.9303C133.297 11.6803 132.978 11.491 132.606 11.3546C132.234 11.2183 131.809 11.1501 131.339 11.1501C130.868 11.1501 130.443 11.2183 130.071 11.3546C129.699 11.491 129.38 11.6803 129.122 11.9303C128.864 12.1803 128.667 12.4757 128.53 12.8242C128.394 13.1726 128.325 13.559 128.325 13.9756C128.325 14.3922 128.394 14.7786 128.53 15.1194C128.667 15.4679 128.864 15.7633 129.122 16.0057C129.38 16.2557 129.699 16.4451 130.071 16.5814C130.443 16.7178 130.868 16.786 131.339 16.786Z" fill="#3A3A3A"/>
<path d="M140.204 12.5053C140.721 11.8614 141.32 11.3463 142.003 10.9524C142.687 10.5661 143.438 10.3691 144.273 10.3691C144.888 10.3691 145.434 10.4676 145.905 10.6646C146.376 10.8615 146.763 11.1418 147.074 11.5054C147.385 11.8766 147.613 12.3159 147.772 12.831C147.932 13.3462 148.007 13.9294 148.007 14.5885V21.7394H146.922V14.5885C146.922 13.5355 146.679 12.7174 146.201 12.119C145.723 11.5206 144.986 11.2251 144 11.2251C143.271 11.2251 142.588 11.4145 141.958 11.7781C141.32 12.1493 140.759 12.6644 140.265 13.3234V21.7318H139.18V10.5434H139.779C139.969 10.5434 140.075 10.6343 140.106 10.8236L140.204 12.4977V12.5053Z" fill="#3A3A3A"/>
</g>
<defs>
<clipPath id="clip0_2359_650">
<rect width="148" height="25.9144" fill="white"/>
</clipPath>
</defs>
</svg>
